<svg width="2705" height="710" xmlns="http://www.w3.org/2000/svg" xmlns:xlink="http://www.w3.org/1999/xlink" overflow="hidden"><defs><clipPath id="clip0"><rect x="1892" y="1659" width="2705" height="710"/></clipPath></defs><g clip-path="url(#clip0)" transform="translate(-1892 -1659)"><path d="M1899.5 1964C1899.5 1858.79 1990.61 1773.5 2103 1773.5 2215.39 1773.5 2306.5 1858.79 2306.5 1964 2306.5 2069.21 2215.39 2154.5 2103 2154.5 1990.61 2154.5 1899.5 2069.21 1899.5 1964Z" stroke="#002060" stroke-width="4.58333" stroke-linecap="butt" stroke-linejoin="miter" stroke-miterlimit="8" stroke-opacity="1" fill="#002060" fill-rule="evenodd" fill-opacity="1"/><rect x="1963.5" y="1889.5" width="279" height="166" stroke="#1971E8" stroke-width="4.58333" stroke-linecap="butt" stroke-linejoin="miter" stroke-miterlimit="8" stroke-opacity="1" fill="#1D72E9" fill-opacity="1"/><path d="M2159.5 1971.5C2159.5 1909.64 2167.11 1859.5 2176.5 1859.5 2185.89 1859.5 2193.5 1909.64 2193.5 1971.5 2193.5 2033.36 2185.89 2083.5 2176.5 2083.5 2167.11 2083.5 2159.5 2033.36 2159.5 1971.5Z" stroke="#FFFFFF" stroke-width="4.58333" stroke-linecap="butt" stroke-linejoin="miter" stroke-miterlimit="8" stroke-opacity="1" fill="#FFFFFF" fill-rule="evenodd" fill-opacity="1"/><path d="M2086.5 1969.5C2086.5 1896.6 2094.78 1837.5 2105 1837.5 2115.22 1837.5 2123.5 1896.6 2123.5 1969.5 2123.5 2042.4 2115.22 2101.5 2105 2101.5 2094.78 2101.5 2086.5 2042.4 2086.5 1969.5Z" stroke="#FFFFFF" stroke-width="4.58333" stroke-linecap="butt" stroke-linejoin="miter" stroke-miterlimit="8" stroke-opacity="1" fill="#FFFFFF" fill-rule="evenodd" fill-opacity="1"/><path d="M1936.5 1972.5C1936.5 1926.66 1946.57 1889.5 1959 1889.5 1971.43 1889.5 1981.5 1926.66 1981.5 1972.5 1981.5 2018.34 1971.43 2055.5 1959 2055.5 1946.57 2055.5 1936.5 2018.34 1936.5 1972.5Z" stroke="#FFFFFF" stroke-width="4.58333" stroke-linecap="butt" stroke-linejoin="miter" stroke-miterlimit="8" stroke-opacity="1" fill="#FFFFFF" fill-rule="evenodd" fill-opacity="1"/><path d="M2221.5 1972.5C2221.5 1926.66 2231.57 1889.5 2244 1889.5 2256.43 1889.5 2266.5 1926.66 2266.5 1972.5 2266.5 2018.34 2256.43 2055.5 2244 2055.5 2231.57 2055.5 2221.5 2018.34 2221.5 1972.5Z" stroke="#FFFFFF" stroke-width="4.58333" stroke-linecap="butt" stroke-linejoin="miter" stroke-miterlimit="8" stroke-opacity="1" fill="#FFFFFF" fill-rule="evenodd" fill-opacity="1"/><path d="M2011.5 1974.5C2011.5 1912.64 2020.23 1862.5 2031 1862.5 2041.77 1862.5 2050.5 1912.64 2050.5 1974.5 2050.5 2036.36 2041.77 2086.5 2031 2086.5 2020.23 2086.5 2011.5 2036.36 2011.5 1974.5Z" stroke="#FFFFFF" stroke-width="4.58333" stroke-linecap="butt" stroke-linejoin="miter" stroke-miterlimit="8" stroke-opacity="1" fill="#FFFFFF" fill-rule="evenodd" fill-opacity="1"/><text fill="#FFFFFF" fill-opacity="1" font-family="Century Gothic,Century Gothic_MSFontService,sans-serif" font-style="normal" font-variant="normal" font-weight="700" font-stretch="normal" font-size="330" text-anchor="start" direction="ltr" writing-mode="lr-tb" unicode-bidi="normal" text-decoration="none" transform="matrix(1 0 0 1 2390.24 2093)">Carbovalent</text></g></svg>